<?xml version="1.0"?>
<svg xmlns="http://www.w3.org/2000/svg" xmlns:xlink="http://www.w3.org/1999/xlink" xmlns:svgjs="http://svgjs.com/svgjs" version="1.1" width="512" height="512" x="0" y="0" viewBox="0 0 511 512" style="enable-background:new 0 0 512 512" xml:space="preserve" class=""><g transform="matrix(1.06,0,0,1.06,-4.746054687499964,-30.360000000000014)">
<g xmlns="http://www.w3.org/2000/svg" id="surface1">
<path d="M 417.0625 142.664062 L 417.0625 235.160156 L 476.03125 188.914062 Z M 417.0625 142.664062 " style="" fill="#edb506" data-original="#000000" class=""/>
<path d="M 245.765625 369.496094 L 387.0625 258.6875 L 387.0625 0 L 104.472656 0 L 104.472656 258.6875 Z M 245.765625 65 C 308.628906 65 359.765625 116.140625 359.765625 179 L 359.765625 215.789062 C 359.765625 241.3125 339.003906 262.078125 313.476562 262.078125 C 292.492188 262.078125 274.734375 248.035156 269.082031 228.859375 C 261.914062 232.199219 254.046875 233.96875 245.890625 233.96875 C 215.582031 233.96875 190.925781 209.308594 190.925781 179 C 190.925781 148.691406 215.582031 124.03125 245.890625 124.03125 C 254.433594 124.03125 262.765625 126.015625 270.289062 129.742188 L 297.191406 129.742188 L 297.191406 215.789062 C 297.191406 224.769531 304.496094 232.078125 313.480469 232.078125 C 322.460938 232.078125 329.769531 224.769531 329.769531 215.789062 L 329.769531 179 C 329.769531 132.683594 292.085938 95 245.769531 95 C 199.449219 95 161.769531 132.683594 161.769531 179 C 161.769531 225.316406 199.449219 263 245.769531 263 C 254.484375 263 263.066406 261.675781 271.277344 259.0625 L 280.375 287.648438 C 269.21875 291.199219 257.574219 293 245.765625 293 C 182.90625 293 131.765625 241.859375 131.765625 179 C 131.765625 116.140625 182.90625 65 245.765625 65 Z M 245.765625 65 " style="" fill="#edb506" data-original="#000000" class=""/>
<path d="M 267.1875 165.964844 C 265.917969 163.890625 264.351562 162.015625 262.511719 160.371094 C 257.933594 156.28125 252.03125 154.03125 245.886719 154.03125 C 232.121094 154.03125 220.921875 165.234375 220.921875 179 C 220.921875 192.765625 232.121094 203.96875 245.886719 203.96875 C 252.640625 203.96875 258.964844 201.3125 263.699219 196.496094 C 265.03125 195.140625 266.199219 193.640625 267.1875 192.023438 Z M 267.1875 165.964844 " style="" fill="#edb506" data-original="#000000" class=""/>
<path d="M 74.472656 235.160156 L 74.472656 142.664062 L 15.5 188.914062 Z M 74.472656 235.160156 " style="" fill="#edb506" data-original="#000000" class=""/>
<path d="M 245.765625 407.621094 L 0.5 215.273438 L 0.5 512 L 491.035156 512 L 491.035156 215.273438 Z M 245.765625 407.621094 " style="" fill="#edb506" data-original="#000000" class=""/>
</g>
</g></svg>
